<?xml version="1.0" encoding="UTF-8"?>
<svg xmlns="http://www.w3.org/2000/svg" width="264" height="120" viewBox="0 0 264 120" fill="none">
  <g clip-path="url(#clip0_12285_3079)">
    <path d="M172.488 29.6544L171.059 31.8403L154.152 21.0532V60.636H151.531V19.3621L143.665 14.28V67.4121H141.044V12.5888L131.869 6.65971L92.3871 31.8403L90.9585 29.6544L131.866 3.55107L141.041 9.4802V0H143.662V11.1742L151.528 16.2563V6.77323H154.149V17.9475L172.485 29.6544H172.488ZM99.0957 53.8657H101.717V33.546H99.0957V53.8657ZM109.583 60.6389H112.204V26.7698H109.583V60.6389ZM130.557 74.1883H133.178V13.2205H130.557V74.1883ZM120.07 67.415H122.691V19.9937H120.07V67.4121V67.415ZM162.015 53.8657H164.637V33.546H162.015V53.8657Z" fill="url(#paint0_linear_12285_3079)"></path>
    <path d="M5.69107 101.54C4.62108 101.54 3.65604 101.383 2.79597 101.069C1.93589 100.754 1.25657 100.262 0.752189 99.5901C0.247805 98.9177 -0.00292969 98.0387 -0.00292969 96.953H2.51899C2.53357 97.6108 2.68518 98.1289 2.9709 98.5073C3.25953 98.8857 3.64438 99.1535 4.13127 99.3107C4.61525 99.4678 5.15462 99.5464 5.74355 99.5464C6.33249 99.5464 6.80772 99.4707 7.25671 99.3223C7.7057 99.1739 8.06139 98.941 8.32378 98.6237C8.58618 98.3094 8.71738 97.9135 8.71738 97.4332C8.71738 96.9908 8.60951 96.627 8.39376 96.3388C8.17801 96.0536 7.81648 95.8003 7.30335 95.582C6.79314 95.3637 6.09341 95.1338 5.20127 94.8893C4.16043 94.6099 3.27994 94.2984 2.55981 93.9549C1.84259 93.6115 1.29739 93.1778 0.92712 92.6509C0.556849 92.1241 0.373172 91.4517 0.373172 90.628C0.373172 89.749 0.586005 89.0213 1.00875 88.445C1.4315 87.8686 2.02627 87.4379 2.78722 87.1526C3.54817 86.8674 4.44032 86.7247 5.46075 86.7247C6.48118 86.7247 7.31502 86.8732 8.11678 87.1701C8.91855 87.467 9.55996 87.9181 10.041 88.5265C10.5221 89.1348 10.7641 89.9003 10.7641 90.823H8.24215C8.24798 90.107 7.98267 89.5714 7.44038 89.2105C6.8981 88.8495 6.23919 88.6691 5.46366 88.6691C4.68814 88.6691 4.05255 88.8204 3.58316 89.1261C3.11376 89.4288 2.8776 89.8858 2.8776 90.4941C2.8776 90.8434 2.97673 91.1461 3.18081 91.3993C3.38198 91.6526 3.74059 91.8883 4.25955 92.1008C4.7756 92.3162 5.5074 92.5549 6.44911 92.8198C7.557 93.1283 8.46081 93.4572 9.16637 93.8065C9.87192 94.1558 10.3909 94.604 10.7291 95.1512C11.0673 95.6985 11.2364 96.4174 11.2364 97.311C11.2364 98.2832 10.9915 99.0807 10.5046 99.7036C10.0148 100.326 9.35588 100.786 8.52204 101.086C7.6882 101.386 6.74649 101.537 5.6969 101.537L5.69107 101.54ZM20.5165 101.345V88.9805H16.5164V86.911H26.9831V88.9805H23.0063V101.345H20.5165ZM33.6829 101.345V86.911H43.17V88.9689H36.1641V92.9478H42.5665V94.9417H36.1641V99.2845H43.17V101.342H33.6829V101.345ZM50.8378 101.345V86.911H60.0975V88.9689H53.316V92.9595H59.4182V94.9446H53.316V101.345H50.8378ZM64.7886 101.345L70.124 86.911H72.7334L78.025 101.345H75.4477L74.2407 97.7418H68.6137L67.3513 101.345H64.7857H64.7886ZM69.2435 95.6723H73.5993L71.4214 89.356L69.2435 95.6723ZM84.5966 101.345V86.911H87.066L94.3869 97.5177V86.911H96.7252V101.345H94.2557L86.9261 90.6979V101.345H84.5966ZM113.032 101.345L118.367 86.911H120.976L126.268 101.345H123.691L122.484 97.7418H116.857L115.594 101.345H113.029H113.032ZM117.484 95.6723H121.839L119.662 89.356L117.484 95.6723ZM132.837 101.345V86.911H135.315V99.1884H141.761V101.342H132.834L132.837 101.345ZM148.677 101.345V86.911H158.164V88.9689H151.158V92.9478H157.56V94.9417H151.158V99.2845H158.164V101.342H148.677V101.345ZM164.106 101.345L168.969 93.8385L164.473 86.911H167.319L170.359 92.1008L173.529 86.911H176.255L171.771 93.8589L176.622 101.345H173.689L170.359 95.812L166.878 101.345H164.109H164.106ZM196.214 101.54C195.144 101.54 194.179 101.383 193.319 101.069C192.459 100.754 191.78 100.262 191.275 99.5901C190.774 98.9177 190.52 98.0387 190.52 96.953H193.042C193.057 97.6108 193.205 98.1289 193.494 98.5073C193.783 98.8857 194.168 99.1535 194.654 99.3107C195.138 99.4678 195.678 99.5464 196.267 99.5464C196.856 99.5464 197.331 99.4707 197.783 99.3223C198.232 99.1739 198.587 98.941 198.85 98.6237C199.112 98.3094 199.243 97.9135 199.243 97.4332C199.243 96.9908 199.136 96.627 198.92 96.3388C198.704 96.0507 198.343 95.8003 197.832 95.582C197.322 95.3637 196.619 95.1338 195.73 94.8893C194.689 94.6099 193.806 94.2984 193.089 93.9549C192.372 93.6115 191.826 93.1778 191.456 92.6509C191.086 92.1241 190.902 91.4517 190.902 90.628C190.902 89.749 191.115 89.0213 191.538 88.445C191.96 87.8686 192.552 87.4379 193.316 87.1526C194.077 86.8674 194.969 86.7247 195.99 86.7247C197.01 86.7247 197.844 86.8732 198.646 87.1701C199.448 87.467 200.089 87.9181 200.57 88.5265C201.051 89.1348 201.293 89.9003 201.293 90.823H198.771C198.777 90.107 198.512 89.5714 197.966 89.2105C197.424 88.8495 196.765 88.6691 195.99 88.6691C195.214 88.6691 194.579 88.8204 194.109 89.1261C193.64 89.4288 193.404 89.8858 193.404 90.4941C193.404 90.8434 193.503 91.1461 193.704 91.3993C193.905 91.6526 194.267 91.8883 194.783 92.1008C195.299 92.3133 196.031 92.5549 196.969 92.8198C198.077 93.1283 198.981 93.4572 199.687 93.8065C200.392 94.1558 200.911 94.604 201.249 95.1512C201.588 95.6985 201.757 96.4174 201.757 97.311C201.757 98.2832 201.512 99.0807 201.022 99.7036C200.532 100.326 199.873 100.786 199.039 101.086C198.206 101.386 197.264 101.537 196.214 101.537V101.54ZM211.04 101.345V88.9805H207.04V86.911H217.506V88.9805H213.529V101.345H211.04ZM224.206 101.345V86.911H233.693V88.9689H226.687V92.9478H233.09V94.9417H226.687V99.2845H233.693V101.342H224.206V101.345ZM241.358 101.345V86.911H243.836V101.345H241.358ZM251.871 101.345V86.911H254.341L261.662 97.5177V86.911H264V101.345H261.531L254.201 90.6979V101.345H251.871Z" fill="url(#paint1_linear_12285_3079)"></path>
    <path d="M92.1797 119.863V109.702H93.5441V119.863H92.1797ZM95.9349 119.863V109.702H97.4305L101.066 115.689H100.512L104.078 109.702H105.536V119.863H104.192V110.834H104.661L101.192 116.67H100.296L96.7745 110.834H97.2439V119.863H95.932H95.9349ZM107.921 119.863V109.702H109.416L113.052 115.689H112.498L116.064 109.702H117.521V119.863H116.177V110.834H116.647L113.177 116.67H112.282L108.76 110.834H109.23V119.863H107.918H107.921ZM124.265 120C123.198 120 122.303 119.779 121.58 119.336C120.857 118.894 120.311 118.283 119.944 117.503C119.577 116.723 119.393 115.817 119.393 114.793C119.393 113.768 119.577 112.86 119.944 112.074C120.311 111.288 120.857 110.674 121.58 110.232C122.303 109.789 123.198 109.568 124.265 109.568C125.332 109.568 126.224 109.789 126.944 110.232C127.662 110.674 128.204 111.288 128.571 112.074C128.939 112.86 129.122 113.765 129.122 114.793C129.122 115.82 128.939 116.723 128.571 117.503C128.204 118.283 127.662 118.894 126.944 119.336C126.227 119.779 125.332 120 124.265 120ZM124.265 118.891C125.084 118.891 125.746 118.708 126.253 118.341C126.758 117.974 127.131 117.479 127.364 116.859C127.6 116.236 127.717 115.55 127.717 114.796C127.717 114.042 127.6 113.346 127.364 112.723C127.128 112.1 126.758 111.606 126.253 111.236C125.746 110.866 125.084 110.68 124.265 110.68C123.446 110.68 122.781 110.866 122.274 111.236C121.766 111.606 121.396 112.1 121.163 112.723C120.93 113.346 120.813 114.036 120.813 114.796C120.813 115.555 120.93 116.239 121.163 116.859C121.396 117.482 121.766 117.974 122.274 118.341C122.784 118.708 123.446 118.891 124.265 118.891ZM130.997 119.863V109.702H134.274C135.3 109.702 136.122 109.909 136.738 110.322C137.353 110.735 137.659 111.364 137.659 112.208C137.659 112.741 137.507 113.218 137.207 113.634C136.907 114.053 136.507 114.324 136.012 114.449C136.72 114.566 137.283 114.845 137.703 115.29C138.122 115.736 138.332 116.286 138.332 116.941C138.332 117.555 138.195 118.079 137.921 118.516C137.647 118.949 137.236 119.284 136.685 119.514C136.134 119.747 135.437 119.863 134.598 119.863H130.994H130.997ZM132.364 114.021H134.268C134.924 114.021 135.428 113.873 135.775 113.57C136.122 113.27 136.294 112.866 136.294 112.359C136.294 112.016 136.216 111.731 136.058 111.504C135.901 111.277 135.673 111.105 135.373 110.991C135.073 110.878 134.702 110.823 134.268 110.823H132.364V114.024V114.021ZM132.364 118.731H134.58C135.012 118.731 135.408 118.676 135.772 118.568C136.137 118.46 136.426 118.268 136.644 117.995C136.863 117.721 136.971 117.343 136.971 116.856C136.971 116.274 136.758 115.838 136.332 115.55C135.91 115.261 135.323 115.119 134.58 115.119H132.364V118.728V118.731ZM140.093 119.863V109.702H141.458V119.863H140.093ZM143.848 119.863V109.702H145.213V118.693H149.986V119.863H143.846H143.848ZM151.318 119.863V109.702H152.682V119.863H151.318ZM155.073 119.863V109.702H161.592V110.834H156.441V114.074H161.184V115.192H156.441V118.731H161.592V119.863H155.073ZM163.423 119.863V109.702H164.82L170.42 117.788V109.702H171.718V119.863H170.321L164.712 111.763V119.863H163.42H163.423Z" fill="url(#paint2_linear_12285_3079)"></path>
  </g>
  <defs>
    <linearGradient id="paint0_linear_12285_3079" x1="120.959" y1="8.37995" x2="147.33" y2="67.9188" gradientUnits="userSpaceOnUse">
      <stop offset="0.4" stop-color="#DABB54"></stop>
      <stop offset="0.5" stop-color="#F7F0DA"></stop>
      <stop offset="0.6" stop-color="#DABB54"></stop>
    </linearGradient>
    <linearGradient id="paint1_linear_12285_3079" x1="108.763" y1="40.2115" x2="156.859" y2="148.799" gradientUnits="userSpaceOnUse">
      <stop offset="0.4" stop-color="#DABB54"></stop>
      <stop offset="0.5" stop-color="#F7F0DA"></stop>
      <stop offset="0.6" stop-color="#DABB54"></stop>
    </linearGradient>
    <linearGradient id="paint2_linear_12285_3079" x1="123.521" y1="95.8207" x2="140.33" y2="133.765" gradientUnits="userSpaceOnUse">
      <stop offset="0.4" stop-color="#DABB54"></stop>
      <stop offset="0.5" stop-color="#F7F0DA"></stop>
      <stop offset="0.6" stop-color="#DABB54"></stop>
    </linearGradient>
    <clipPath id="clip0_12285_3079">
      <rect width="264" height="120" fill="white"></rect>
    </clipPath>
  </defs>
</svg>
